<svg width="134" height="134" viewBox="0 0 134 134" fill="none" xmlns="http://www.w3.org/2000/svg">
<g clip-path="url(#clip0_860_2725)">
<path d="M134.342 67.0229C134.317 103.803 104.352 133.703 67.523 133.692C30.6164 133.685 0.714844 103.747 0.714844 66.8294C0.714844 29.9122 30.7468 0.0124663 67.8084 0.0652553C104.521 0.118044 134.366 30.1515 134.342 67.0229ZM126.706 67.0722C126.776 34.4415 100.332 7.80765 67.7696 7.7056C35.0773 7.60706 8.46684 34.0579 8.35056 66.7766C8.23428 99.1539 34.7778 125.96 67.0332 126.027C100.004 126.097 126.635 99.7874 126.706 67.0722Z" fill="#001689"/>
<path d="M94.123 74.0612C93.8129 87.2444 84.1969 98.1576 70.9128 100.104C58.633 101.892 46.0888 93.667 42.5581 81.4516C40.2149 73.3573 41.5574 65.7838 46.3038 58.8509C52.308 50.0386 57.7979 40.9941 61.6492 31.0345C62.4702 28.923 62.9952 26.6742 63.6295 24.4817C64.1122 22.817 65.1411 21.8668 66.9206 21.8739C68.6013 21.8739 69.7113 22.7115 70.12 24.3374C72.8544 35.2471 78.6895 44.5521 85.0919 53.5684C87.9355 57.5734 91.3499 61.251 92.629 66.1534C93.302 68.7541 93.6367 71.4288 94.123 74.0612ZM66.8113 27.642C66.2969 29.1834 65.8846 30.5841 65.3702 31.9425C61.4765 42.2012 55.9092 51.5484 49.7041 60.5436C45.4757 66.6989 44.1262 73.3116 46.2368 80.5683C50.2221 94.2583 66.7444 100.73 78.9749 93.3573C90.7967 86.2343 93.6579 71.1859 85.2153 60.1213C79.7889 53.0265 74.8205 45.6466 70.9692 37.5734C69.4646 34.4201 68.256 31.126 66.8113 27.642Z" fill="#001689"/>
</g>
<defs>
<clipPath id="clip0_860_2725">
<rect width="133.627" height="133.627" fill="white" transform="translate(0.34668 0.0651855)"/>
</clipPath>
</defs>
</svg>
